<?xml version="1.0" encoding="utf-8"?>
<!-- Generator: Adobe Illustrator 24.0.1, SVG Export Plug-In . SVG Version: 6.00 Build 0)  -->
<svg version="1.1" id="Layer_1" xmlns="http://www.w3.org/2000/svg" xmlns:xlink="http://www.w3.org/1999/xlink" x="0px" y="0px"
	 viewBox="0 0 410 410" style="enable-background:new 0 0 410 410;" xml:space="preserve">
<style type="text/css">
	.st0{fill:#FFFFFF;}
</style>
<path class="st0" d="M39.8,2.3c-0.1,1.6-0.3,3.2-0.3,4.7c0,118.7,0,237.4,0,356.1c0,1.7,0,3.4,0,5.3c8.9,0,17.4,0,26.3,0
	c0-54.4,0-108.6,0-163c17.8,0,35.1,0,53,0c0,54.2,0,108.5,0,163c11.2,0,21.8,0,33,0c0-65.1,0-130.2,0-195.6c17.9,0,35.3,0,53,0
	c0,65.1,0,130.2,0,195.5c11.1,0,21.8,0,33,0c0-56.3,0-112.7,0-169.4c17.8,0,35.1,0,53,0c0,56.5,0,112.9,0,169.5c11.3,0,22,0,33.3,0
	c0-87.2,0-174.1,0-261.2c17.8,0,35.1,0,52.8,0c0,87.1,0,174,0,261.2c11.3,0,22.2,0,33.1,0c0,4.5,0,9,0,13.5
	c-123.4,0-246.7,0-370.5,0c0,8.9,0,17.4,0,25.8c-4.7,0-8.9,0-13.4,0c0-8.7,0-17.1,0-25.9c-8.9,0-17.5,0-26,0c0-4.5,0-8.5,0-12.9
	c8.8,0,17.3,0,25.9,0c0-11.1,0-21.8,0-32.9c-4.4,0-8.4,0-12.6,0c0-4.4,0-8.4,0-12.9c4.3,0,8.4,0,12.7,0c0-15.5,0-30.6,0-46
	c-4.4,0-8.5,0-12.6,0c0-4.5,0-8.6,0-13.2c4.4,0,8.5,0,12.6,0c0-15.4,0-30.4,0-45.8c-4.4,0-8.4,0-12.7,0c0-4.5,0-8.5,0-13
	c4.4,0,8.6,0,12.7,0c0-15.5,0-30.4,0-45.8c-4.4,0-8.4,0-12.7,0c0-4.4,0-8.5,0-13c4.4,0,8.6,0,12.7,0c0-15.5,0-30.5,0-45.8
	c-4.3,0-8.4,0-12.6,0c0-4.5,0-8.6,0-13.1c4.4,0,8.5,0,12.6,0c0-15.4,0-30.4,0-45.8c-4.3,0-8.4,0-12.6,0c0-4.5,0-8.7,0-13.1
	c4.4,0,8.5,0,12.4,0c0.2-0.6,0.3-0.9,0.3-1.1c0-8.3,0-16.6,0-24.9C30.7,2.3,35.3,2.3,39.8,2.3z M337.4,120.4c0,83,0,165.4,0,248
	c8.8,0,17.4,0,26,0c0-82.9,0-165.4,0-248C354.6,120.4,346.1,120.4,337.4,120.4z M165.3,185.7c0,61,0,121.8,0,182.6
	c8.8,0,17.4,0,26,0c0-61,0-121.7,0-182.6C182.6,185.7,174.1,185.7,165.3,185.7z M277.5,368.4c0-52.5,0-104.4,0-156.5
	c-8.8,0-17.4,0-26,0c0,52.3,0,104.4,0,156.5C260.3,368.4,268.8,368.4,277.5,368.4z M105.3,218.6c-8.8,0-17.4,0-26,0
	c0,50.2,0,100,0,149.9c8.7,0,17.2,0,26,0C105.3,318.5,105.3,268.7,105.3,218.6z"/>
<path class="st0" d="M381.2,2.3c1.2,0.5,2.3,1.1,3.5,1.6c9.7,4.1,14.5,15.3,10.7,25.1c-3.6,9.5-14.3,14.7-24.2,11.4
	c-2.9-0.9-4.1,0.4-5.7,2c-43.6,43.1-87.3,86.3-130.9,129.4c-1,1-2.1,2-3.1,3c-28.6-28.3-57.1-56.5-85.8-84.9
	c-1.1,0.9-1.8,1.5-2.4,2.1c-19.1,18.9-38.1,37.7-57.3,56.5c-1.5,1.5-2.3,2.7-1.4,5.1c2.9,8.4-0.7,17.7-8.4,22.3
	c-7.8,4.7-17.5,3.7-24-2.5c-6.6-6.2-8-16.1-3.4-24c4.5-7.7,13.8-11.6,22.3-8.8c2.9,1,4.3,0,6.1-1.8c21.5-21.3,43-42.6,64.5-63.9
	c1-1,1.8-2.3,2.9-3.6c29.1,28.7,57.7,56.9,86.4,85.2c1.4-1.3,2.3-2.1,3.3-3c40.5-40.1,81-80.1,121.5-120.1c2.1-2.1,2.9-3.7,1.9-6.8
	c-2.9-9.1,2.4-19.2,11.6-22.9c1.2-0.5,2.4-1,3.7-1.5C375.8,2.3,378.5,2.3,381.2,2.3z M383.5,22c0-3.6-3.1-6.5-6.8-6.4
	c-3.5,0.1-6.3,2.9-6.3,6.4c0,3.4,2.9,6.4,6.3,6.5C380.2,28.6,383.5,25.4,383.5,22z M72.4,159.3c-0.1-3.5-3.3-6.5-6.8-6.4
	c-3.5,0.1-6.5,3.3-6.3,6.8c0.2,3.4,3.1,6.1,6.6,6.1C69.5,165.8,72.5,162.8,72.4,159.3z"/>
</svg>
