<svg height="480pt" viewBox="0 -56 480.25136 480" width="480pt" xmlns="http://www.w3.org/2000/svg"><path d="m392 304.460938h-352v-256c0-8.835938 7.164062-16 16-16h320c8.835938 0 16 7.164062 16 16zm0 0" fill="#e4e4e2"/><path d="m72 64.460938h288v200h-288zm0 0" fill="#aae5c8"/><path d="m24 296.460938h384c8.835938 0 16 7.164062 16 16v32c0 8.835937-7.164062 16-16 16h-384c-8.835938 0-16-7.164063-16-16v-32c0-8.835938 7.164062-16 16-16zm0 0" fill="#ebebeb"/><path d="m168 296.460938h96v16c0 8.835937-7.164062 16-16 16h-64c-8.835938 0-16-7.164063-16-16zm0 0" fill="#dbdbdb"/><path d="m168 208.460938c-1.238281.011718-2.460938-.261719-3.574219-.800782l-48-24 7.148438-14.320312 42.523437 21.265625 59.925782-67.425781c2.753906-3.117188 7.441406-3.605469 10.777343-1.121094l58.597657 43.953125 147.097656-139.359375 11 11.617187-152 144c-2.828125 2.675781-7.179688 2.925781-10.296875.589844l-58.109375-43.582031-59.113282 66.503906c-1.519531 1.703125-3.695312 2.679688-5.976562 2.679688zm0 0" fill="#ffb1b5"/><path d="m456 48.460938c-13.253906 0-24-10.746094-24-24 0-13.253907 10.746094-24 24-24s24 10.746093 24 24c0 13.253906-10.746094 24-24 24zm0 0" fill="#69b0bb"/><path d="m120 200.460938c-13.253906 0-24-10.746094-24-24 0-13.253907 10.746094-24 24-24s24 10.746093 24 24c0 13.253906-10.746094 24-24 24zm0 0" fill="#69b0bb"/><path d="m224 168.460938h16v72h-16zm0 0" fill="#ea6b65"/><path d="m288 200.460938h16v40h-16zm0 0" fill="#85bc94"/><path d="m160 224.460938h16v16h-16zm0 0" fill="#e78244"/><path d="m112 216.460938h16v24h-16zm0 0" fill="#fbb540"/><path d="m224 168.460938h16v72h-16zm0 0"/><path d="m288 200.460938h16v40h-16zm0 0"/><path d="m160 224.460938h16v16h-16zm0 0"/><path d="m112 216.460938h16v24h-16zm0 0"/><path d="m24 368.460938h384c13.253906 0 24-10.746094 24-24v-32c0-13.253907-10.746094-24-24-24h-8v-199.503907l45.441406-43.046875c10.546875 5.199219 23.3125 2.042969 30.214844-7.484375 6.90625-9.523437 5.9375-22.636719-2.289062-31.042969-8.226563-8.40625-21.3125-9.660156-30.988282-2.96875-9.671875 6.695313-13.109375 19.386719-8.140625 30.046876l-34.238281 32.457031v-18.457031c0-13.253907-10.746094-24-24-24h-320c-13.253906 0-24 10.746093-24 24v240h-8c-13.253906 0-24 10.746093-24 24v32c0 13.253906 10.746094 24 24 24zm432-352c4.417969 0 8 3.582031 8 8 0 4.417968-3.582031 8-8 8s-8-3.582032-8-8c0-4.417969 3.582031-8 8-8zm-408 32c0-4.417969 3.582031-8 8-8h320c4.417969 0 8 3.582031 8 8v33.597656l-16 15.203125v-32.800781c0-4.417969-3.582031-8-8-8h-288c-4.417969 0-8 3.582031-8 8v200c0 4.417968 3.582031 8 8 8h288c4.417969 0 8-3.582032 8-8v-145.191407l16-15.160156v184.351563h-336zm72 104c-10.824219-.03125-20.328125 7.179687-23.207031 17.613281-2.878907 10.433593 1.578125 21.5 10.886719 27.023437 9.304687 5.523438 21.160156 4.136719 28.9375-3.390625l27.808593 13.953125c3.230469 1.617188 7.148438.859375 9.550781-1.839844l59.113282-66.503906 58.109375 43.542969c3.117187 2.335937 7.46875 2.085937 10.296875-.589844l50.503906-47.839843v122.03125h-272v-184h272v39.925781l-56.601562 53.601562-58.597657-43.929687c-3.328125-2.492188-8.011719-2.023438-10.777343 1.082031l-59.925782 67.425781-22.402344-11.203125c.164063-.960937.265626-1.929687.304688-2.902343 0-13.253907-10.746094-24-24-24zm8 24c0 4.417968-3.582031 8-8 8s-8-3.582032-8-8c0-4.417969 3.582031-8 8-8s8 3.582031 8 8zm48 128h80v8c0 4.417968-3.582031 8-8 8h-64c-4.417969 0-8-3.582032-8-8zm-160 8c0-4.417969 3.582031-8 8-8h136v8c0 13.253906 10.746094 24 24 24h64c13.253906 0 24-10.746094 24-24v-8h136c4.417969 0 8 3.582031 8 8v32c0 4.417968-3.582031 8-8 8h-384c-4.417969 0-8-3.582032-8-8zm0 0"/></svg>