<?xml version="1.0" encoding="utf-8"?>
<!-- Generator: Adobe Illustrator 24.0.1, SVG Export Plug-In . SVG Version: 6.00 Build 0)  -->
<svg version="1.1" id="Layer_1" xmlns="http://www.w3.org/2000/svg" xmlns:xlink="http://www.w3.org/1999/xlink" x="0px" y="0px"
	 viewBox="0 0 300 300" style="enable-background:new 0 0 300 300;" xml:space="preserve">
<style type="text/css">
	.st0{fill:#FFFFFF;}
</style>
<path class="st0" d="M0,140.5c0.5-4.7,0.9-9.3,1.6-13.9C7.9,84.5,28.1,50.7,61.9,25.1c15-11.4,31.7-19.4,49.8-24.6
	c4.7-1.3,9.2,0.1,11.7,3.7c2.6,3.8,2.5,8.1-0.8,12.2c-9.6,12-16.4,25.4-20.2,40.3c-6.8,26.5-4.8,52.2,6.6,77.1
	c12.1,26.2,31.6,45,57.9,56.4c19.1,8.3,39.2,10.9,59.9,8c20.6-2.9,38.8-11.2,55.2-24c2.1-1.7,4.8-3.3,7.4-3.7
	c7-1.1,11.9,4.6,10.2,11.5c-5.8,24.3-16.6,46.1-33,65c-19.7,22.8-44.1,38.6-73,46.7c-45.6,12.7-88.5,6-127.7-20.8
	c-33.5-22.9-54.2-54.9-62.8-94.7c-1.3-6.2-1.8-12.6-2.6-18.9c-0.1-1-0.4-2.1-0.5-3.1C0,151.1,0,145.8,0,140.5z M271.2,206.1
	c-55.6,23.1-107.6,18.2-151.4-24.5c-43.8-42.7-50.3-94.7-29-150.9c-40.8,20.3-75,69-69.6,128.6c5.5,60.2,51.8,109.7,111.2,118.6
	C193.3,287.1,246.7,254.2,271.2,206.1z"/>
</svg>
