<?xml version="1.0" encoding="utf-8"?>
<!-- Generator: Adobe Illustrator 24.0.1, SVG Export Plug-In . SVG Version: 6.00 Build 0)  -->
<svg version="1.1" id="Layer_1" xmlns="http://www.w3.org/2000/svg" xmlns:xlink="http://www.w3.org/1999/xlink" x="0px" y="0px"
	 viewBox="0 0 426.67 426.67" style="enable-background:new 0 0 426.67 426.67;" xml:space="preserve">
<style type="text/css">
	.st0{fill:#49AA26;}
</style>
<g>
	<g>
		<g>
			<path class="st0" d="M213.33,298.67L213.33,298.67c11.78,0,21.33,9.55,21.33,21.33v0c0,11.78-9.55,21.33-21.33,21.33h0
				c-11.78,0-21.33-9.55-21.33-21.33v0C192,308.22,201.55,298.67,213.33,298.67z"/>
		</g>
	</g>
</g>
<g>
	<g>
		<g>
			<path class="st0" d="M213.33,0C95.51,0,0,95.51,0,213.33s95.51,213.33,213.33,213.33s213.33-95.51,213.33-213.33
				S331.15,0,213.33,0z M213.33,388.05c-96.5,0-174.72-78.22-174.72-174.72S116.84,38.62,213.33,38.62
				c96.45,0.12,174.6,78.27,174.72,174.72C388.05,309.83,309.83,388.05,213.33,388.05z"/>
		</g>
	</g>
</g>
<g>
	<g>
		<g>
			<path class="st0" d="M296.32,150.4c-10.97-45.83-57.02-74.09-102.86-63.12c-33.04,7.91-57.68,34.42-63.92,66.8
				c-1.66,8.62,5.06,16.59,13.83,16.59h15.89c6.13,0,11.48-4,13.4-9.82c6.07-18.4,24.14-30.94,44.29-29.22
				c23.19,1.97,40.49,22.08,39.12,45.18c-0.04,0.74-0.15,1.48-0.32,2.2c-4.78,20.62-23.51,35.07-44.77,34.32
				c-10.49,0-18.99,8.5-18.99,18.99l0,0v30.95c0,7.76,6.29,14.06,14.06,14.06h14.55c7.76,0,14.06-6.29,14.06-14.06l0,0
				c0-5.89,3.7-11.09,9.21-13.19C283.44,234.99,306.47,192.53,296.32,150.4z"/>
		</g>
	</g>
</g>
</svg>
