<?xml version="1.0" encoding="utf-8"?>
<!-- Generator: Adobe Illustrator 24.0.1, SVG Export Plug-In . SVG Version: 6.00 Build 0)  -->
<svg version="1.1" id="Layer_1" xmlns="http://www.w3.org/2000/svg" xmlns:xlink="http://www.w3.org/1999/xlink" x="0px" y="0px"
	 viewBox="0 0 267 302" style="enable-background:new 0 0 267 302;" xml:space="preserve">
<style type="text/css">
	.st0{fill:#49AA26;}
</style>
<g>
	<g>
		<path class="st0" d="M136.9,301C70.8,300.9,16.5,255.7,3.4,192.3c-5.7-27.8-2.9-55.1,7.8-81.4c3.7-9.1,13.1-13.4,21.7-10.1
			c8.8,3.3,13.5,13.1,10,22.5c-5.7,15-9,30.4-8.1,46.5c2.5,46.1,35.2,85,79.2,94.1c53.3,11.1,106.3-25.1,116.6-79.6
			c10.4-55-24.1-108.4-77.4-119.4c-17.6-3.7-59.4,2.6-42.1-2.7c6.6-2-2.3-3.6-6.2-4c-7.8-0.9-25-3.7-25.7-11.7
			c-0.7-7.3-0.3-6.7,6.9-9.5c17.6-6.8,35.9-10,54.7-8.7C179,30.8,210.8,47,235.5,77c22.5,27.3,32.8,59.3,30.8,95.1
			c-2.2,39.1-18.3,71.5-47.3,96.9c-18.7,16.3-40.4,26.4-64.7,30.2C147.5,300.2,140.5,300.6,136.9,301z"/>
		<path class="st0" d="M133.5,88c-1.4,1.6-4,2-6.9,0.7c-1.7-0.8-3.3-1.8-4.9-2.8c-18.1-10.7-36.2-21.4-54.2-32.2c-1.6-1-3.1-2-4.6-3
			c-4.4-2.9-4.4-6.8,0.1-9.7c5.3-3.4,10.7-6.7,16-10c14.3-9,28.6-17.9,42.9-26.9c1.4-0.9,2.9-1.9,4.5-2.5c3.2-1.4,6-0.3,6.7,2.4"/>
	</g>
</g>
</svg>