<?xml version="1.0" encoding="utf-8"?>
<!-- Generator: Adobe Illustrator 24.0.1, SVG Export Plug-In . SVG Version: 6.00 Build 0)  -->
<svg version="1.1" id="Layer_1" xmlns="http://www.w3.org/2000/svg" xmlns:xlink="http://www.w3.org/1999/xlink" x="0px" y="0px"
	 viewBox="0 0 300 300" style="enable-background:new 0 0 300 300;" xml:space="preserve">
<style type="text/css">
	.st0{fill:#FFFFFF;}
</style>
<path class="st0" d="M147.7,300c-7-2.4-9.8-7.4-9.4-14.6c0.3-6.5,0-13.1,0.1-19.6c0-7.4,4.9-12.6,11.7-12.6
	c6.8,0,11.7,5.2,11.7,12.6c0,6.5-0.2,13.1,0.1,19.6c0.3,7.3-2.4,12.2-9.4,14.6C150.8,300,149.2,300,147.7,300z"/>
<path class="st0" d="M0,147.7c2.4-7,7.4-9.9,14.6-9.4c3,0.2,6-0.1,9.1,0.1c6.5,0.3,11.5,5.3,11.5,11.7c0,6.3-4.9,11.4-11.5,11.7
	c-3,0.1-6.1-0.1-9.1,0.1c-7.2,0.5-12.2-2.4-14.6-9.4C0,150.8,0,149.2,0,147.7z"/>
<path class="st0" d="M147.8,58.6c45.4,0.1,82.7,30.3,91.7,72.8c3.9,18.6,2,36.9-5.4,54.5c-2.5,6.1-9,8.9-14.9,6.7
	c-6.1-2.2-9.3-8.8-6.9-15.1c3.9-10.1,6.2-20.3,5.6-31.1c-1.7-30.9-24.2-56.9-54.4-63c-36.6-7.4-73,16.8-80.1,53.3
	c-7.1,36.8,16.6,72.6,53.2,79.9c12.1,2.4,24.1,1.5,35.8-2.4c2.6-0.9,5.6-1.5,8.2-1.2c5.3,0.6,9.2,5.2,9.7,10.6
	c0.4,4.9-2.6,9.9-7.5,11.7c-12.1,4.5-24.6,6.7-37.6,5.8c-26.3-1.7-48.2-12.5-65.1-32.6c-15.4-18.3-22.5-39.7-21.1-63.7
	C60.4,118.7,71.5,97,91.4,80c12.8-10.9,27.7-17.7,44.4-20.2C140.5,59.1,145.3,58.8,147.8,58.6z"/>
<path class="st0" d="M241.8,147.7c-0.1,45.4-30.3,82.7-72.8,91.7c-18.6,3.9-36.9,2-54.5-5.4c-6.1-2.5-8.9-9-6.7-14.9
	c2.2-6.1,8.8-9.3,15.1-6.9c10.1,3.9,20.3,6.2,31.1,5.6c30.9-1.7,56.9-24.2,63-54.4c7.4-36.6-16.8-73.1-53.3-80.1
	c-36.8-7.1-72.5,16.6-79.9,53.2c-2.4,12.1-1.5,24.1,2.4,35.8c0.9,2.6,1.5,5.6,1.2,8.2c-0.6,5.3-5.2,9.2-10.6,9.7
	c-4.9,0.4-9.9-2.6-11.7-7.5c-4.5-12.1-6.7-24.6-5.8-37.6c1.7-26.3,12.5-48.2,32.6-65.1c18.3-15.4,39.7-22.5,63.7-21.1
	c26.2,1.5,47.8,12.6,64.8,32.5c10.9,12.8,17.7,27.7,20.2,44.4C241.3,140.4,241.5,145.2,241.8,147.7z"/>
<path class="st0" d="M161.7,23.5c0,3.8,0.1,7.6,0,11.4c-0.2,6.8-5.1,11.8-11.6,11.9c-6.6,0.1-11.7-5-11.8-12
	c-0.1-7.6-0.1-15.2,0-22.8C138.4,5.1,143.5,0,150,0c6.6,0,11.5,5.1,11.7,12.1C161.8,15.9,161.7,19.7,161.7,23.5z"/>
<path class="st0" d="M62.5,208.2c-0.2,3.9-1.8,7.3-5.4,9.5c-6.8,4.1-13.7,8.3-20.7,12.1c-6.1,3.3-12.7,1.3-16-4.3
	c-3.2-5.5-1.4-12.3,4.5-15.9c6.6-4,13.2-7.9,20-11.6C53,193.4,62.5,198.9,62.5,208.2z"/>
<path class="st0" d="M250.2,103.7c-5.8,0.1-10.5-3.2-12.1-7.9c-1.6-4.6-0.3-10.1,3.9-12.8c7.5-4.8,15.1-9.3,23-13.4
	c5.3-2.8,11.7-0.3,14.6,4.9c2.9,5.1,1.9,11.7-3.1,14.9c-7.4,4.8-15.3,9-23,13.4C252.3,103.5,250.8,103.6,250.2,103.7z"/>
<path class="st0" d="M20.4,78.1c-0.1-8.7,8.9-14.7,16.6-10.6c7.6,4.1,15,8.7,22.2,13.5c4.9,3.3,5.9,9.9,3,14.9
	c-3,5.2-9.4,7.6-14.6,4.8c-7.9-4.3-15.5-9.1-23-13.9C21.6,84.9,20.4,81.6,20.4,78.1z"/>
<path class="st0" d="M279.7,221.2c0,9.3-8.6,15.3-16.1,11.4c-7.9-4.1-15.6-8.9-23-13.9c-4.8-3.2-5.5-10.1-2.4-15
	c3-4.8,9.3-7.2,14.3-4.5c7.9,4.3,15.5,9.1,23,13.9C278.4,215.1,279.6,218.4,279.7,221.2z"/>
<path class="st0" d="M282.2,161.7c-2,0-4.1,0.1-6.1,0c-6.4-0.4-11.2-5.4-11.2-11.7c0-6.2,4.8-11.4,11.2-11.7c4.3-0.2,8.6-0.2,12.9,0
	c6.3,0.3,11.1,5.6,11,11.8c-0.1,6.1-4.8,11.1-11,11.5C286.7,161.8,284.5,161.7,282.2,161.7z"/>
<path class="st0" d="M82.9,246.1c9.1-0.1,15.1,8.8,11.3,16.4c-2.1,4.4-4.8,8.5-7.6,12.4c-3.6,5-10.3,5.9-15.5,2.6
	c-4.8-3-6.8-9.5-4.1-14.7c2.2-4.3,4.9-8.4,7.7-12.4C76.8,247.5,80,246.3,82.9,246.1z"/>
<path class="st0" d="M98.4,39.7c-0.1,5.7-3.2,10-7.9,11.7c-4.6,1.6-10,0.3-12.8-3.8c-2.9-4.2-5.5-8.5-7.6-13.1
	c-2.4-5.1-0.3-11,4.5-14.1c4.7-3,11.3-2.6,14.6,1.8c3.4,4.6,5.9,9.8,8.7,14.8C98.4,38,98.3,39.3,98.4,39.7z"/>
<path class="st0" d="M218.5,281.3c-3.1-0.1-6.4-1.4-8.5-4.7c-2.6-4-5.1-8.1-7.2-12.4c-2.7-5.5-0.4-11.9,4.8-14.9
	c5.3-3,11.9-1.6,15.3,3.5c2.6,3.9,5,7.9,7,12.2C233.4,272.8,227.7,281.3,218.5,281.3z"/>
<path class="st0" d="M204.4,40.6c2.3-6.4,5.5-13.9,12.4-18.8c3.8-2.7,9.5-1.7,13,1.5c3.7,3.3,5.3,8.7,3.1,13
	c-2.4,4.7-5.2,9.2-8.3,13.4c-2.8,3.9-8.2,4.9-12.7,3.2C207.3,51.1,204.5,47.1,204.4,40.6z"/>
</svg>
